<svg width="38" height="33" viewBox="0 0 38 33" fill="none" xmlns="http://www.w3.org/2000/svg">
<path fill-rule="evenodd" clip-rule="evenodd" d="M4.05916 1.33064C1.80268 2.97632 -0.0102886 7.26106 4.39472e-05 10.9225C0.0135558 15.727 3.36767 21.732 8.44495 26.0432C11.009 28.2203 14.2384 30.5647 15.6221 31.2526C18.0113 32.4413 18.3309 32.3892 21.9807 30.2046C33.3743 23.3868 38.0248 17.3611 36.9597 10.7958C36.1872 6.03342 33.4284 3.29172 29.4106 3.29172C25.9492 3.29172 23.3446 4.63111 19.3888 8.44648L16.928 10.8198L15.5506 7.06487C13.2138 0.69157 8.29712 -1.76122 4.05916 1.33064Z" fill="#E80740"/>
<path d="M18.216 26.192C17.4053 26.192 16.7227 26.0427 16.168 25.744C15.6133 25.4347 15.1653 25.024 14.824 24.512C14.4933 24 14.248 23.4293 14.088 22.8C13.9387 22.16 13.864 21.5093 13.864 20.848C13.864 19.6107 14.0347 18.528 14.376 17.6C14.7173 16.6613 15.208 15.9307 15.848 15.408C16.4987 14.8747 17.2827 14.608 18.2 14.608C18.904 14.608 19.5067 14.7467 20.008 15.024C20.5093 15.3013 20.904 15.6747 21.192 16.144C21.4907 16.6027 21.6773 17.1147 21.752 17.68H20.504C20.3867 17.072 20.1253 16.6027 19.72 16.272C19.3147 15.9413 18.8027 15.776 18.184 15.776C17.3413 15.776 16.632 16.176 16.056 16.976C15.4907 17.7653 15.1867 19.0027 15.144 20.688C15.4 20.1867 15.8053 19.7547 16.36 19.392C16.9253 19.0187 17.6027 18.832 18.392 18.832C19.032 18.832 19.6293 18.9813 20.184 19.28C20.7493 19.5787 21.208 20 21.56 20.544C21.912 21.0773 22.088 21.7067 22.088 22.432C22.088 23.0613 21.9333 23.664 21.624 24.24C21.3147 24.816 20.8667 25.2853 20.28 25.648C19.704 26.0107 19.016 26.192 18.216 26.192ZM18.12 25.008C18.6213 25.008 19.0693 24.9013 19.464 24.688C19.8587 24.4747 20.168 24.1813 20.392 23.808C20.616 23.424 20.728 22.9867 20.728 22.496C20.728 21.7387 20.4773 21.136 19.976 20.688C19.4853 20.2293 18.8667 20 18.12 20C17.6187 20 17.1707 20.1173 16.776 20.352C16.3813 20.576 16.0667 20.88 15.832 21.264C15.608 21.648 15.496 22.064 15.496 22.512C15.496 22.992 15.608 23.424 15.832 23.808C16.0667 24.1813 16.3813 24.4747 16.776 24.688C17.1707 24.9013 17.6187 25.008 18.12 25.008Z" fill="white"/>
</svg>
