<svg width="45" height="39" viewBox="0 0 45 39" fill="none" xmlns="http://www.w3.org/2000/svg">
<path fill-rule="evenodd" clip-rule="evenodd" d="M5.55115 1.58824C2.85784 3.55251 0.693896 8.66672 0.706229 13.0369C0.722357 18.7716 4.7258 25.9391 10.786 31.0849C13.8464 33.6835 17.7009 36.4817 19.3526 37.3028C22.2043 38.7216 22.5857 38.6594 26.9421 36.0519C40.5414 27.9142 46.0922 20.7221 44.8209 12.8858C43.8988 7.20142 40.6059 3.92896 35.8103 3.92896C31.6788 3.92896 28.57 5.52765 23.8484 10.0816L20.9113 12.9144L19.2672 8.43255C16.4781 0.825451 10.6095 -2.10218 5.55115 1.58824Z" fill="#E80740"/>
<path d="M21.2001 29.4092C20.4854 29.4092 19.8401 29.2812 19.2641 29.0252C18.6881 28.7585 18.2241 28.3638 17.8721 27.8412C17.5307 27.3185 17.3494 26.6678 17.3281 25.8892H18.6881C18.6987 26.5292 18.9227 27.0838 19.3601 27.5532C19.7974 28.0118 20.4107 28.2412 21.2001 28.2412C21.9894 28.2412 22.5814 28.0225 22.9761 27.5852C23.3814 27.1478 23.5841 26.6198 23.5841 26.0012C23.5841 25.4785 23.4561 25.0518 23.2001 24.7212C22.9547 24.3905 22.6187 24.1452 22.1921 23.9852C21.7761 23.8252 21.3174 23.7452 20.8161 23.7452H19.9841V22.6092H20.8161C21.5414 22.6092 22.1067 22.4438 22.5121 22.1132C22.9281 21.7825 23.1361 21.3185 23.1361 20.7212C23.1361 20.2198 22.9707 19.8092 22.6401 19.4892C22.3201 19.1585 21.8401 18.9932 21.2001 18.9932C20.5814 18.9932 20.0854 19.1798 19.7121 19.5532C19.3387 19.9158 19.1307 20.3745 19.0881 20.9292H17.7281C17.7601 20.3212 17.9201 19.7825 18.2081 19.3132C18.5067 18.8438 18.9121 18.4812 19.4241 18.2252C19.9361 17.9585 20.5281 17.8252 21.2001 17.8252C21.9254 17.8252 22.5281 17.9532 23.0081 18.2092C23.4987 18.4652 23.8667 18.8065 24.1121 19.2332C24.3681 19.6598 24.4961 20.1292 24.4961 20.6412C24.4961 21.2065 24.3414 21.7238 24.0321 22.1932C23.7227 22.6518 23.2587 22.9612 22.6401 23.1212C23.3014 23.2598 23.8507 23.5745 24.2881 24.0652C24.7254 24.5558 24.9441 25.2012 24.9441 26.0012C24.9441 26.6198 24.8001 27.1905 24.5121 27.7132C24.2347 28.2252 23.8187 28.6358 23.2641 28.9452C22.7094 29.2545 22.0214 29.4092 21.2001 29.4092Z" fill="white"/>
</svg>
