<svg width="45" height="39" viewBox="0 0 45 39" fill="none" xmlns="http://www.w3.org/2000/svg">
<path fill-rule="evenodd" clip-rule="evenodd" d="M5.17237 1.58824C2.47906 3.55251 0.315112 8.66672 0.327445 13.0369C0.343573 18.7716 4.34701 25.9391 10.4072 31.0849C13.4677 33.6835 17.3222 36.4817 18.9738 37.3028C21.8256 38.7216 22.2069 38.6594 26.5633 36.0519C40.1626 27.9142 45.7134 20.7221 44.4422 12.8858C43.52 7.20142 40.2272 3.92896 35.4316 3.92896C31.3 3.92896 28.1912 5.52765 23.4696 10.0816L20.5325 12.9144L18.8884 8.43255C16.0993 0.825451 10.2307 -2.10218 5.17237 1.58824Z" fill="#E80740"/>
<path d="M18.0207 29.2172V28.2732C18.778 27.6758 19.4927 27.0732 20.1647 26.4652C20.8474 25.8465 21.45 25.2385 21.9727 24.6412C22.506 24.0438 22.922 23.4572 23.2207 22.8812C23.53 22.3052 23.6847 21.7505 23.6847 21.2172C23.6847 20.8225 23.6154 20.4545 23.4767 20.1132C23.3487 19.7718 23.1354 19.4998 22.8367 19.2972C22.538 19.0838 22.1327 18.9772 21.6207 18.9772C21.13 18.9772 20.7194 19.0892 20.3887 19.3132C20.058 19.5265 19.8074 19.8145 19.6367 20.1772C19.4767 20.5398 19.3967 20.9292 19.3967 21.3452H18.1007C18.1007 20.6092 18.2554 19.9798 18.5647 19.4572C18.874 18.9238 19.2954 18.5185 19.8287 18.2412C20.362 17.9638 20.9647 17.8252 21.6367 17.8252C22.6287 17.8252 23.4394 18.1078 24.0687 18.6732C24.7087 19.2278 25.0287 20.0598 25.0287 21.1692C25.0287 21.8305 24.8634 22.4865 24.5327 23.1372C24.202 23.7772 23.7807 24.4012 23.2687 25.0092C22.7567 25.6065 22.2074 26.1665 21.6207 26.6892C21.0447 27.2118 20.506 27.6812 20.0047 28.0972H25.4127V29.2172H18.0207Z" fill="white"/>
</svg>
