<svg width="45" height="39" viewBox="0 0 45 39" fill="none" xmlns="http://www.w3.org/2000/svg">
<path fill-rule="evenodd" clip-rule="evenodd" d="M4.92994 1.58824C2.23663 3.55251 0.0726805 8.66672 0.0850134 13.0369C0.101141 18.7716 4.10458 25.9391 10.1648 31.0849C13.2252 33.6835 17.0797 36.4817 18.7314 37.3028C21.5831 38.7216 21.9645 38.6594 26.3208 36.0519C39.9202 27.9142 45.471 20.7221 44.1997 12.8858C43.2776 7.20142 39.9847 3.92896 35.1891 3.92896C31.0576 3.92896 27.9488 5.52765 23.2272 10.0816L20.2901 12.9144L18.646 8.43255C15.8569 0.825451 9.98832 -2.10218 4.92994 1.58824Z" fill="#EFF0F6"/>
<path d="M22.2481 29.2172V26.8172H16.5681V25.7772L22.0081 18.0172H23.5761V25.6332H25.2401V26.8172H23.5761V29.2172H22.2481ZM18.0561 25.6332H22.3121V19.5052L18.0561 25.6332Z" fill="#6F6C90"/>
</svg>
