<svg width="45" height="39" viewBox="0 0 45 39" fill="none" xmlns="http://www.w3.org/2000/svg">
<path fill-rule="evenodd" clip-rule="evenodd" d="M4.84498 1.58824C2.15167 3.55251 -0.0122804 8.66672 5.24549e-05 13.0369C0.0161801 18.7716 4.01962 25.9391 10.0798 31.0849C13.1403 33.6835 16.9948 36.4817 18.6464 37.3028C21.4982 38.7216 21.8795 38.6594 26.2359 36.0519C39.8353 27.9142 45.386 20.7221 44.1148 12.8858C43.1926 7.20142 39.8998 3.92896 35.1042 3.92896C30.9727 3.92896 27.8638 5.52765 23.1422 10.0816L20.2051 12.9144L18.561 8.43255C15.7719 0.825451 9.90335 -2.10218 4.84498 1.58824Z" fill="#EFF0F6"/>
<path d="M20.8138 29.4092C20.0458 29.4092 19.3791 29.2705 18.8138 28.9932C18.2484 28.7158 17.7951 28.3372 17.4538 27.8572C17.1231 27.3665 16.9204 26.8118 16.8458 26.1932H18.1578C18.2858 26.8118 18.5844 27.3132 19.0538 27.6972C19.5231 28.0705 20.1151 28.2572 20.8298 28.2572C21.3631 28.2572 21.8218 28.1345 22.2058 27.8892C22.5898 27.6332 22.8831 27.2918 23.0858 26.8652C23.2991 26.4385 23.4058 25.9638 23.4058 25.4412C23.4058 24.6092 23.1711 23.9372 22.7018 23.4252C22.2324 22.9132 21.6244 22.6572 20.8778 22.6572C20.2591 22.6572 19.7311 22.7958 19.2938 23.0732C18.8564 23.3505 18.5364 23.7132 18.3338 24.1612H17.0538L18.0138 18.0172H23.8858V19.1852H19.0538L18.3978 22.5932C18.6538 22.2838 19.0058 22.0278 19.4538 21.8252C19.9124 21.6225 20.4351 21.5212 21.0218 21.5212C21.7578 21.5212 22.3978 21.6918 22.9418 22.0332C23.4964 22.3745 23.9284 22.8385 24.2378 23.4252C24.5471 24.0118 24.7018 24.6785 24.7018 25.4252C24.7018 26.1398 24.5471 26.8012 24.2378 27.4092C23.9391 28.0172 23.4964 28.5025 22.9098 28.8652C22.3338 29.2278 21.6351 29.4092 20.8138 29.4092Z" fill="#6F6C90"/>
</svg>
