<svg width="45" height="39" viewBox="0 0 45 39" fill="none" xmlns="http://www.w3.org/2000/svg">
<path fill-rule="evenodd" clip-rule="evenodd" d="M4.84498 1.58824C2.15167 3.55251 -0.0122804 8.66672 5.24549e-05 13.0369C0.0161801 18.7716 4.01962 25.9391 10.0798 31.0849C13.1403 33.6835 16.9948 36.4817 18.6464 37.3028C21.4982 38.7216 21.8795 38.6594 26.2359 36.0519C39.8353 27.9142 45.386 20.7221 44.1148 12.8858C43.1926 7.20142 39.8998 3.92896 35.1042 3.92896C30.9727 3.92896 27.8638 5.52765 23.1422 10.0816L20.2051 12.9144L18.561 8.43255C15.7719 0.825451 9.90335 -2.10218 4.84498 1.58824Z" fill="#57D6F0"/>
<path d="M20.8139 29.4093C20.0459 29.4093 19.3792 29.2706 18.8139 28.9933C18.2486 28.716 17.7952 28.3373 17.4539 27.8573C17.1232 27.3666 16.9206 26.812 16.8459 26.1933H18.1579C18.2859 26.812 18.5846 27.3133 19.0539 27.6973C19.5232 28.0706 20.1152 28.2573 20.8299 28.2573C21.3632 28.2573 21.8219 28.1346 22.2059 27.8893C22.5899 27.6333 22.8832 27.292 23.0859 26.8653C23.2992 26.4386 23.4059 25.964 23.4059 25.4413C23.4059 24.6093 23.1712 23.9373 22.7019 23.4253C22.2326 22.9133 21.6246 22.6573 20.8779 22.6573C20.2592 22.6573 19.7312 22.796 19.2939 23.0733C18.8566 23.3506 18.5366 23.7133 18.3339 24.1613H17.0539L18.0139 18.0173H23.8859V19.1853H19.0539L18.3979 22.5933C18.6539 22.284 19.0059 22.028 19.4539 21.8253C19.9126 21.6226 20.4352 21.5213 21.0219 21.5213C21.7579 21.5213 22.3979 21.692 22.9419 22.0333C23.4966 22.3746 23.9286 22.8386 24.2379 23.4253C24.5472 24.012 24.7019 24.6786 24.7019 25.4253C24.7019 26.14 24.5472 26.8013 24.2379 27.4093C23.9392 28.0173 23.4966 28.5026 22.9099 28.8653C22.3339 29.228 21.6352 29.4093 20.8139 29.4093Z" fill="white"/>
</svg>
