<svg width="45" height="39" viewBox="0 0 45 39" fill="none" xmlns="http://www.w3.org/2000/svg">
<path fill-rule="evenodd" clip-rule="evenodd" d="M4.92988 1.58824C2.23657 3.55251 0.0726195 8.66672 0.0849524 13.0369C0.10108 18.7716 4.10452 25.9391 10.1647 31.0849C13.2252 33.6835 17.0797 36.4817 18.7313 37.3028C21.5831 38.7216 21.9644 38.6594 26.3208 36.0519C39.9202 27.9142 45.4709 20.7221 44.1997 12.8858C43.2775 7.20142 39.9847 3.92896 35.1891 3.92896C31.0576 3.92896 27.9487 5.52765 23.2271 10.0816L20.29 12.9144L18.6459 8.43255C15.8568 0.825451 9.98825 -2.10218 4.92988 1.58824Z" fill="#57D6F0"/>
<path d="M22.248 29.2173V26.8173H16.568V25.7773L22.008 18.0173H23.576V25.6333H25.24V26.8173H23.576V29.2173H22.248ZM18.056 25.6333H22.312V19.5053L18.056 25.6333Z" fill="white"/>
</svg>
