<svg width="45" height="39" viewBox="0 0 45 39" fill="none" xmlns="http://www.w3.org/2000/svg">
<path fill-rule="evenodd" clip-rule="evenodd" d="M5.1724 1.58824C2.47909 3.55251 0.315143 8.66672 0.327476 13.0369C0.343603 18.7716 4.34705 25.9391 10.4072 31.0849C13.4677 33.6835 17.3222 36.4817 18.9738 37.3028C21.8256 38.7216 22.207 38.6594 26.5633 36.0519C40.1627 27.9142 45.7134 20.7221 44.4422 12.8858C43.5201 7.20142 40.2272 3.92896 35.4316 3.92896C31.3001 3.92896 28.1912 5.52765 23.4696 10.0816L20.5325 12.9144L18.8885 8.43255C16.0993 0.825451 10.2308 -2.10218 5.1724 1.58824Z" fill="#57D6F0"/>
<path d="M18.0208 29.2173V28.2733C18.7781 27.676 19.4928 27.0733 20.1648 26.4653C20.8474 25.8466 21.4501 25.2386 21.9728 24.6413C22.5061 24.044 22.9221 23.4573 23.2208 22.8813C23.5301 22.3053 23.6848 21.7506 23.6848 21.2173C23.6848 20.8226 23.6154 20.4546 23.4768 20.1133C23.3488 19.772 23.1354 19.5 22.8368 19.2973C22.5381 19.084 22.1328 18.9773 21.6208 18.9773C21.1301 18.9773 20.7194 19.0893 20.3888 19.3133C20.0581 19.5266 19.8074 19.8146 19.6368 20.1773C19.4768 20.54 19.3968 20.9293 19.3968 21.3453H18.1008C18.1008 20.6093 18.2554 19.98 18.5648 19.4573C18.8741 18.924 19.2954 18.5186 19.8288 18.2413C20.3621 17.964 20.9648 17.8253 21.6368 17.8253C22.6288 17.8253 23.4394 18.108 24.0688 18.6733C24.7088 19.228 25.0288 20.06 25.0288 21.1693C25.0288 21.8306 24.8634 22.4866 24.5328 23.1373C24.2021 23.7773 23.7808 24.4013 23.2688 25.0093C22.7568 25.6066 22.2074 26.1666 21.6208 26.6893C21.0448 27.212 20.5061 27.6813 20.0048 28.0973H25.4128V29.2173H18.0208Z" fill="white"/>
</svg>
