<svg width="45" height="39" viewBox="0 0 45 39" fill="none" xmlns="http://www.w3.org/2000/svg">
<path fill-rule="evenodd" clip-rule="evenodd" d="M5.55115 1.58824C2.85784 3.55251 0.693896 8.66672 0.706229 13.0369C0.722357 18.7716 4.7258 25.9391 10.786 31.0849C13.8464 33.6835 17.7009 36.4817 19.3526 37.3028C22.2043 38.7216 22.5857 38.6594 26.9421 36.0519C40.5414 27.9142 46.0922 20.7221 44.8209 12.8858C43.8988 7.20142 40.6059 3.92896 35.8103 3.92896C31.6788 3.92896 28.57 5.52765 23.8484 10.0816L20.9113 12.9144L19.2672 8.43255C16.4781 0.825451 10.6095 -2.10218 5.55115 1.58824Z" fill="#57D6F0"/>
<path d="M21.2 29.4093C20.4854 29.4093 19.84 29.2813 19.264 29.0253C18.688 28.7586 18.224 28.364 17.872 27.8413C17.5307 27.3186 17.3494 26.668 17.328 25.8893H18.688C18.6987 26.5293 18.9227 27.084 19.36 27.5533C19.7974 28.012 20.4107 28.2413 21.2 28.2413C21.9894 28.2413 22.5814 28.0226 22.976 27.5853C23.3814 27.148 23.584 26.62 23.584 26.0013C23.584 25.4786 23.456 25.052 23.2 24.7213C22.9547 24.3906 22.6187 24.1453 22.192 23.9853C21.776 23.8253 21.3174 23.7453 20.816 23.7453H19.984V22.6093H20.816C21.5414 22.6093 22.1067 22.444 22.512 22.1133C22.928 21.7826 23.136 21.3186 23.136 20.7213C23.136 20.22 22.9707 19.8093 22.64 19.4893C22.32 19.1586 21.84 18.9933 21.2 18.9933C20.5814 18.9933 20.0854 19.18 19.712 19.5533C19.3387 19.916 19.1307 20.3746 19.088 20.9293H17.728C17.76 20.3213 17.92 19.7826 18.208 19.3133C18.5067 18.844 18.912 18.4813 19.424 18.2253C19.936 17.9586 20.528 17.8253 21.2 17.8253C21.9254 17.8253 22.528 17.9533 23.008 18.2093C23.4987 18.4653 23.8667 18.8066 24.112 19.2333C24.368 19.66 24.496 20.1293 24.496 20.6413C24.496 21.2066 24.3414 21.724 24.032 22.1933C23.7227 22.652 23.2587 22.9613 22.64 23.1213C23.3014 23.26 23.8507 23.5746 24.288 24.0653C24.7254 24.556 24.944 25.2013 24.944 26.0013C24.944 26.62 24.8 27.1906 24.512 27.7133C24.2347 28.2253 23.8187 28.636 23.264 28.9453C22.7094 29.2546 22.0214 29.4093 21.2 29.4093Z" fill="white"/>
</svg>
