<svg width="45" height="39" viewBox="0 0 45 39" fill="none" xmlns="http://www.w3.org/2000/svg">
<path fill-rule="evenodd" clip-rule="evenodd" d="M4.84498 1.58824C2.15167 3.55251 -0.0122804 8.66672 5.24549e-05 13.0369C0.0161801 18.7716 4.01962 25.9391 10.0798 31.0849C13.1403 33.6835 16.9948 36.4817 18.6464 37.3028C21.4982 38.7216 21.8795 38.6594 26.2359 36.0519C39.8353 27.9142 45.386 20.7221 44.1148 12.8858C43.1926 7.20142 39.8998 3.92896 35.1042 3.92896C30.9727 3.92896 27.8638 5.52765 23.1422 10.0816L20.2051 12.9144L18.561 8.43255C15.7719 0.825451 9.90335 -2.10218 4.84498 1.58824Z" fill="#57D6F0"/>
<path d="M20.7855 29.1456V19.8656L18.9775 20.2816V19.0336L21.4575 17.9456H22.5455V29.1456H20.7855Z" fill="white"/>
</svg>
