<svg width="38" height="33" viewBox="0 0 38 33" fill="none" xmlns="http://www.w3.org/2000/svg">
<path fill-rule="evenodd" clip-rule="evenodd" d="M4.05916 1.33064C1.80268 2.97632 -0.0102886 7.26106 4.39472e-05 10.9225C0.0135558 15.727 3.36767 21.732 8.44495 26.0432C11.009 28.2203 14.2384 30.5647 15.6221 31.2526C18.0113 32.4413 18.3309 32.3892 21.9807 30.2046C33.3743 23.3868 38.0248 17.3611 36.9597 10.7958C36.1872 6.03342 33.4284 3.29172 29.4106 3.29172C25.9492 3.29172 23.3446 4.63111 19.3888 8.44648L16.928 10.8198L15.5506 7.06487C13.2138 0.69157 8.29712 -1.76122 4.05916 1.33064Z" fill="#EFF0F6"/>
<path d="M18.216 25.192C17.4053 25.192 16.7227 25.0427 16.168 24.744C15.6133 24.4347 15.1653 24.024 14.824 23.512C14.4933 23 14.248 22.4293 14.088 21.8C13.9387 21.16 13.864 20.5093 13.864 19.848C13.864 18.6107 14.0347 17.528 14.376 16.6C14.7173 15.6613 15.208 14.9307 15.848 14.408C16.4987 13.8747 17.2827 13.608 18.2 13.608C18.904 13.608 19.5067 13.7467 20.008 14.024C20.5093 14.3013 20.904 14.6747 21.192 15.144C21.4907 15.6027 21.6773 16.1147 21.752 16.68H20.504C20.3867 16.072 20.1253 15.6027 19.72 15.272C19.3147 14.9413 18.8027 14.776 18.184 14.776C17.3413 14.776 16.632 15.176 16.056 15.976C15.4907 16.7653 15.1867 18.0027 15.144 19.688C15.4 19.1867 15.8053 18.7547 16.36 18.392C16.9253 18.0187 17.6027 17.832 18.392 17.832C19.032 17.832 19.6293 17.9813 20.184 18.28C20.7493 18.5787 21.208 19 21.56 19.544C21.912 20.0773 22.088 20.7067 22.088 21.432C22.088 22.0613 21.9333 22.664 21.624 23.24C21.3147 23.816 20.8667 24.2853 20.28 24.648C19.704 25.0107 19.016 25.192 18.216 25.192ZM18.12 24.008C18.6213 24.008 19.0693 23.9013 19.464 23.688C19.8587 23.4747 20.168 23.1813 20.392 22.808C20.616 22.424 20.728 21.9867 20.728 21.496C20.728 20.7387 20.4773 20.136 19.976 19.688C19.4853 19.2293 18.8667 19 18.12 19C17.6187 19 17.1707 19.1173 16.776 19.352C16.3813 19.576 16.0667 19.88 15.832 20.264C15.608 20.648 15.496 21.064 15.496 21.512C15.496 21.992 15.608 22.424 15.832 22.808C16.0667 23.1813 16.3813 23.4747 16.776 23.688C17.1707 23.9013 17.6187 24.008 18.12 24.008Z" fill="#6F6C8F"/>
</svg>
