<svg width="45" height="39" viewBox="0 0 45 39" fill="none" xmlns="http://www.w3.org/2000/svg">
<path fill-rule="evenodd" clip-rule="evenodd" d="M5.1724 1.58824C2.47909 3.55251 0.315143 8.66672 0.327476 13.0369C0.343603 18.7716 4.34705 25.9391 10.4072 31.0849C13.4677 33.6835 17.3222 36.4817 18.9738 37.3028C21.8256 38.7216 22.207 38.6594 26.5633 36.0519C40.1627 27.9142 45.7134 20.7221 44.4422 12.8858C43.5201 7.20142 40.2272 3.92896 35.4316 3.92896C31.3001 3.92896 28.1912 5.52765 23.4696 10.0816L20.5325 12.9144L18.8885 8.43255C16.0993 0.825451 10.2308 -2.10218 5.1724 1.58824Z" fill="#EFF0F6"/>
<path d="M18.0208 29.2172V28.2732C18.7781 27.6758 19.4928 27.0732 20.1648 26.4652C20.8474 25.8465 21.4501 25.2385 21.9728 24.6412C22.5061 24.0438 22.9221 23.4572 23.2208 22.8812C23.5301 22.3052 23.6848 21.7505 23.6848 21.2172C23.6848 20.8225 23.6154 20.4545 23.4768 20.1132C23.3488 19.7718 23.1354 19.4998 22.8368 19.2972C22.5381 19.0838 22.1328 18.9772 21.6208 18.9772C21.1301 18.9772 20.7194 19.0892 20.3888 19.3132C20.0581 19.5265 19.8074 19.8145 19.6368 20.1772C19.4768 20.5398 19.3968 20.9292 19.3968 21.3452H18.1008C18.1008 20.6092 18.2554 19.9798 18.5648 19.4572C18.8741 18.9238 19.2954 18.5185 19.8288 18.2412C20.3621 17.9638 20.9648 17.8252 21.6368 17.8252C22.6288 17.8252 23.4394 18.1078 24.0688 18.6732C24.7088 19.2278 25.0288 20.0598 25.0288 21.1692C25.0288 21.8305 24.8634 22.4865 24.5328 23.1372C24.2021 23.7772 23.7808 24.4012 23.2688 25.0092C22.7568 25.6065 22.2074 26.1665 21.6208 26.6892C21.0448 27.2118 20.5061 27.6812 20.0048 28.0972H25.4128V29.2172H18.0208Z" fill="#6F6C90"/>
</svg>
